<svg aria-hidden="true" style="width:0;height:0;position:absolute;overflow:hidden" xmlns="http://www.w3.org/2000/svg"><defs><symbol id="icon-blank" viewBox="0 0 32 32"><path d="M21.441 10.182h-8.653a.194.194 0 0 0-.192.193V13.285h.385V10.57h8.268v10.671a.19.19 0 0 1-.177.19h-.001a.803.803 0 0 1-.049-.002c-.034-.001-.068-.002-.102-.005l-.008-.001a1.353 1.353 0 0 1-1.193-1.203l-.001-.008a1.414 1.414 0 0 1-.007-.135v-.393a.193.193 0 0 0-.192-.193h-6.538V16h-.385v3.491h-1.538a.193.193 0 0 0-.192.193v.389a1.74 1.74 0 0 0 1.731 1.745h8.48a.576.576 0 0 0 .558-.575V10.374a.193.193 0 0 0-.192-.193zM12.595 21.43a1.354 1.354 0 0 1-1.346-1.358v-.194h8.076v.194c0 .064.004.128.011.191l.007.05c.006.047.014.094.024.14l.012.048c.018.073.037.131.058.189l-.004-.012c.017.048.037.095.059.141l.013.028a1.798 1.798 0 0 0 .191.306l.006.008c.079.1.166.188.261.266l.003.002-7.373-.001z"/><path d="M16.441 15.612c.051 0 .1-.02.136-.057l.769-.776c.035-.035.056-.084.056-.137s-.022-.102-.056-.137l-.769-.776a.192.192 0 0 0-.136-.057h-5.384c-.531 0-.961.434-.961.97s.431.97.961.97h5.384zm-.049-1.521.547.552-.547.552-.137-.552.137-.552zm-4.758-.031h4.369l-.096.388h-3.889v.388h3.888l.096.388h-4.369V14.06zm-1.154.582a.58.58 0 0 1 .577-.582h.192v1.164h-.192a.579.579 0 0 1-.577-.579v-.002zm4.038 3.879h5.769a.194.194 0 0 0 .192-.193v-5.82a.192.192 0 0 0-.328-.136l-5.769 5.818c-.035.035-.056.084-.056.137s.021.102.056.137a.192.192 0 0 0 .136.057zm5.577-5.544v.502h-.385v.388h.385v.388h-.385v.388h.385v.388h-.385v.388h.385v.388h-.385v.388h.385v.388h-.385v.388h.385v.388h-.385v.388h.385v.388h-.385v-.388h-.385v.388h-.385v-.388h-.385v.388h-.385v-.388h-.385v.388H17.4v-.388h-.385v.388h-.385v-.388h-.385v.388h-.385v-.388h-.385v.388h-.497l5.113-5.156z"/><path d="M17.304 17.358h1.83a.194.194 0 0 0 .192-.193V15.318a.192.192 0 0 0-.328-.136l-1.83 1.846c-.035.035-.056.084-.056.137s.022.102.056.137a.192.192 0 0 0 .136.057zm1.637-1.571v1.183h-1.173l1.173-1.183zm0-4.442h-3.846v.388h3.846v-.388zm.577.776h-5v.388h5v-.388zm-5 4.073h-1.153v.388h1.153v-.388zm-.384.776h-.769v.388h.769v-.388z"/></symbol><symbol id="icon-web-programming" viewBox="0 0 33 32"><path d="M12.747 22.425h-.001a.53.53 0 0 1-.345-.127l.001.001-3.451-2.911a.524.524 0 0 1-.001-.803l.001-.001 3.451-2.911a.539.539 0 0 1 .752.059l.001.001a.522.522 0 0 1-.059.744l-.001.001-2.975 2.509 2.975 2.509a.525.525 0 0 1 .06.745.532.532 0 0 1-.404.186h-.001zm6.814 0h-.001a.534.534 0 0 1-.404-.185l-.001-.001a.522.522 0 0 1 .059-.744l.001-.001 2.974-2.509-2.974-2.509a.525.525 0 0 1-.06-.745l-.001.001a.536.536 0 0 1 .753-.059l-.001-.001 3.452 2.911a.524.524 0 0 1 .001.803l-.001.001-3.452 2.912a.529.529 0 0 1-.343.125h-.003zm-4.629 2.183h-.005a.53.53 0 0 1-.517-.641l-.001.003 2.151-10.115a.533.533 0 0 1 1.042.221v-.003l-2.151 10.115a.534.534 0 0 1-.521.42z"/><path d="M28.726 30.119H3.58c-1.973 0-3.581-1.59-3.581-3.547V5.434c0-1.957 1.606-3.548 3.581-3.548h25.146c1.974 0 3.581 1.591 3.581 3.548v21.138c0 1.956-1.606 3.547-3.581 3.547zM3.581 2.944c-1.387 0-2.514 1.117-2.514 2.491v21.138c0 1.373 1.129 2.491 2.514 2.491h25.146c1.387 0 2.514-1.118 2.514-2.491V5.435c0-1.374-1.127-2.491-2.514-2.491H3.581z"/><path d="M31.774 10.347H.531A.53.53 0 0 1 0 9.818c0-.291.239-.528.533-.528h31.241a.53.53 0 0 1 .533.528.532.532 0 0 1-.531.529h-.002zM9.113 7.819h-.005a1.682 1.682 0 0 1-1.682-1.672v-.001a1.68 1.68 0 0 1 1.687-1.671c.931 0 1.689.75 1.689 1.671s-.757 1.673-1.689 1.673zm0-2.288h-.002a.619.619 0 0 0-.619.615c.002.34.278.615.619.615h.005a.619.619 0 0 0 .619-.615.619.619 0 0 0-.619-.615h-.003zM3.927 7.802h-.005A1.682 1.682 0 0 1 2.24 6.131V6.13a1.68 1.68 0 0 1 1.687-1.671c.931 0 1.689.75 1.689 1.671s-.757 1.671-1.689 1.671zm0-2.287h-.002a.619.619 0 0 0-.619.615c.002.34.278.615.619.615h.004a.619.619 0 0 0 .619-.615.619.619 0 0 0-.619-.615h-.002zM14.3 7.834h-.005a1.682 1.682 0 0 1-1.682-1.671v-.001A1.68 1.68 0 0 1 14.3 4.491c.931 0 1.689.75 1.689 1.671s-.757 1.671-1.689 1.671zm0-2.287h-.002a.619.619 0 0 0-.619.615c.002.34.278.615.619.615h.005a.619.619 0 0 0 .619-.615.619.619 0 0 0-.619-.615H14.3z"/></symbol></defs></svg>